<!DOCTYPE svg PUBLIC "-//W3C//DTD SVG 1.1//EN" "http://www.w3.org/Graphics/SVG/1.1/DTD/svg11.dtd">
<!-- Uploaded to: SVG Repo, www.svgrepo.com, Transformed by: SVG Repo Mixer Tools -->
<svg width="181px" height="181px" viewBox="-2.4 -2.4 28.80 28.80" fill="none" xmlns="http://www.w3.org/2000/svg" transform="matrix(1, 0, 0, 1, 0, 0)" stroke="#00000">
<g id="SVGRepo_bgCarrier" stroke-width="0">
<path transform="translate(-2.4, -2.4), scale(0.8999999999999999)" d="M16,29.457413325968542C18.114504675292082,28.583625124929142,18.782742308491695,25.94542111927441,20.34006199916776,24.26929725059992C21.3648162194764,23.166366992626635,22.483409702792876,22.247930545134594,23.617959623321774,21.258297863872876C25.119516642497473,19.94853628171044,27.063389536925893,19.15506072922394,28.131537159862017,17.473035301484998C29.45852989965998,15.383403229253519,31.437677511254293,12.78862117877226,30.43323706310769,10.526195198789274C29.405843247520274,8.21206849834843,25.67127767526523,8.888964648236438,23.645925261878237,7.369534478867678C21.843145086090992,6.017079187765866,21.4174044689036,3.2285294525413852,19.39098378550899,2.242237968977175C17.305793835794027,1.2273425398738893,14.836372121382391,1.6370728770570395,12.540524907741707,1.9643578141154503C10.084167405145031,2.3145243260043076,7.374521301365325,2.5233162000882885,5.5586159520498715,4.214113801499796C3.7468213110699065,5.901083903974549,3.3288859123543744,8.580571725359922,2.8304527098780987,11.00544951411478C2.381208596004715,13.191022361285365,1.7122582416803216,15.65756392950498,2.806748420266361,17.60195077196147C3.925383020121766,19.58923073118903,7.40591843452825,19.170728691514583,8.540273761664235,21.14907724425734C9.84147882143651,23.418416564346273,7.50834031036555,26.903158517735143,9.255996182878555,28.84962570434515C10.786170235868026,30.553870590761647,13.883224873794775,30.33213975771612,16,29.457413325968542" fill="#A476FF" strokewidth="0"/>
</g>
<g id="SVGRepo_tracerCarrier" stroke-linecap="round" stroke-linejoin="round"/>
<g id="SVGRepo_iconCarrier"> <path d="M8.7838 21.9999C7.0986 21.2478 5.70665 20.0758 4.79175 18.5068" stroke="#1C274C" stroke-width="0.312" stroke-linecap="round"/> <path d="M14.8252 2.18595C16.5021 1.70882 18.2333 2.16305 19.4417 3.39724" stroke="#1C274C" stroke-width="0.312" stroke-linecap="round"/> <path d="M4.0106 8.36655L3.63846 7.71539L4.0106 8.36655ZM6.50218 8.86743L7.15007 8.48962L6.50218 8.86743ZM3.2028 10.7531L2.55491 11.1309H2.55491L3.2028 10.7531ZM7.69685 3.37253L8.34474 2.99472V2.99472L7.69685 3.37253ZM8.53873 4.81624L7.89085 5.19405L8.53873 4.81624ZM10.4165 9.52517C10.6252 9.88299 11.0844 10.0039 11.4422 9.79524C11.8 9.58659 11.9209 9.12736 11.7123 8.76955L10.4165 9.52517ZM7.53806 12.1327C7.74672 12.4905 8.20594 12.6114 8.56376 12.4027C8.92158 12.1941 9.0425 11.7349 8.83384 11.377L7.53806 12.1327ZM4.39747 5.25817L3.74958 5.63598L4.39747 5.25817ZM11.8381 2.9306L12.486 2.55279V2.55279L11.8381 2.9306ZM14.3638 7.26172L15.0117 6.88391L14.3638 7.26172ZM16.0475 10.1491L16.4197 10.8003C16.5934 10.701 16.7202 10.5365 16.772 10.3433C16.8238 10.15 16.7962 9.94413 16.6954 9.77132L16.0475 10.1491ZM17.0153 5.75389C17.2239 6.11171 17.6831 6.23263 18.041 6.02397C18.3988 5.81531 18.5197 5.35609 18.311 4.99827L17.0153 5.75389ZM20.1888 9.7072L20.8367 9.32939V9.32939L20.1888 9.7072ZM6.99128 17.2497L7.63917 16.8719L6.99128 17.2497ZM16.9576 19.2533L16.5854 18.6021L16.9576 19.2533ZM13.784 15.3C13.9927 15.6578 14.4519 15.7787 14.8097 15.5701C15.1676 15.3614 15.2885 14.9022 15.0798 14.5444L13.784 15.3ZM20.347 8.48962C20.1383 8.1318 19.6791 8.01089 19.3213 8.21954C18.9635 8.4282 18.8426 8.88742 19.0512 9.24524L20.347 8.48962ZM8.98692 20.1803C9.35042 20.3789 9.80609 20.2452 10.0047 19.8817C10.2033 19.5182 10.0697 19.0626 9.70616 18.864L8.98692 20.1803ZM13.8888 19.5453C13.4792 19.6067 13.1969 19.9886 13.2583 20.3982C13.3197 20.8079 13.7015 21.0902 14.1112 21.0288L13.8888 19.5453ZM4.38275 9.0177C5.01642 8.65555 5.64023 8.87817 5.85429 9.24524L7.15007 8.48962C6.4342 7.26202 4.82698 7.03613 3.63846 7.71539L4.38275 9.0177ZM3.63846 7.71539C2.44761 8.39597 1.83532 9.8969 2.55491 11.1309L3.85068 10.3753C3.64035 10.0146 3.75139 9.37853 4.38275 9.0177L3.63846 7.71539ZM7.04896 3.75034L7.89085 5.19405L9.18662 4.43843L8.34474 2.99472L7.04896 3.75034ZM7.89085 5.19405L10.4165 9.52517L11.7123 8.76955L9.18662 4.43843L7.89085 5.19405ZM8.83384 11.377L7.15007 8.48962L5.85429 9.24524L7.53806 12.1327L8.83384 11.377ZM7.15007 8.48962L5.04535 4.88036L3.74958 5.63598L5.85429 9.24524L7.15007 8.48962ZM5.57742 3.5228C6.21109 3.16065 6.8349 3.38327 7.04896 3.75034L8.34474 2.99472C7.62887 1.76712 6.02165 1.54123 4.83313 2.22048L5.57742 3.5228ZM4.83313 2.22048C3.64228 2.90107 3.02999 4.40199 3.74958 5.63598L5.04535 4.88036C4.83502 4.51967 4.94606 3.88363 5.57742 3.5228L4.83313 2.22048ZM11.1902 3.30841L13.7159 7.63953L15.0117 6.88391L12.486 2.55279L11.1902 3.30841ZM13.7159 7.63953L15.3997 10.5269L16.6954 9.77132L15.0117 6.88391L13.7159 7.63953ZM9.71869 3.08087C10.3524 2.71872 10.9762 2.94134 11.1902 3.30841L12.486 2.55279C11.7701 1.32519 10.1629 1.0993 8.9744 1.77855L9.71869 3.08087ZM8.9744 1.77855C7.78355 2.45914 7.17126 3.96006 7.89085 5.19405L9.18662 4.43843C8.97629 4.07774 9.08733 3.4417 9.71869 3.08087L8.9744 1.77855ZM15.5437 5.52635C16.1774 5.1642 16.8012 5.38682 17.0153 5.75389L18.311 4.99827C17.5952 3.77068 15.988 3.54478 14.7994 4.22404L15.5437 5.52635ZM14.7994 4.22404C13.6086 4.90462 12.9963 6.40555 13.7159 7.63953L15.0117 6.88391C14.8013 6.52322 14.9124 5.88718 15.5437 5.52635L14.7994 4.22404ZM2.55491 11.1309L6.34339 17.6276L7.63917 16.8719L3.85068 10.3753L2.55491 11.1309ZM19.5409 10.085C21.1461 12.8377 19.9501 16.6792 16.5854 18.6021L17.3297 19.9045C21.2539 17.6618 22.9512 12.9554 20.8367 9.32939L19.5409 10.085ZM15.0798 14.5444C14.4045 13.3863 14.8772 11.6818 16.4197 10.8003L15.6754 9.49797C13.5735 10.6993 12.5995 13.2687 13.784 15.3L15.0798 14.5444ZM19.0512 9.24524L19.5409 10.085L20.8367 9.32939L20.347 8.48962L19.0512 9.24524ZM9.70616 18.864C8.85353 18.3981 8.13826 17.7278 7.63917 16.8719L6.34339 17.6276C6.98843 18.7337 7.90969 19.5917 8.98692 20.1803L9.70616 18.864ZM16.5854 18.6021C15.7158 19.0991 14.7983 19.409 13.8888 19.5453L14.1112 21.0288C15.2038 20.865 16.2984 20.4939 17.3297 19.9045L16.5854 18.6021Z" fill="#1C274C"/> </g>
</svg>